<svg width="21" height="21" viewBox="0 0 21 21" fill="none" xmlns="http://www.w3.org/2000/svg">
<circle cx="10.0424" cy="12.3305" r="7.5" fill="#F9E160"/>
<g filter="url(#filter0_i_1_31)">
<circle cx="10.0424" cy="12.3305" r="6.22881" fill="#FE881C" fill-opacity="0.72"/>
</g>
<g filter="url(#filter1_d_1_31)">
<path d="M9.75472 16.5254V15.6819C8.84767 15.6131 8.13846 15.2882 7.62711 14.7071L8.22065 13.8635C8.64069 14.3259 9.15205 14.604 9.75472 14.6977V12.8888C9.4686 12.8138 9.23119 12.7419 9.04247 12.6732C8.85376 12.5982 8.65591 12.4951 8.44893 12.3639C8.24195 12.2264 8.08368 12.0515 7.9741 11.839C7.87061 11.6203 7.81887 11.3641 7.81887 11.0705C7.81887 10.5893 7.99541 10.18 8.34849 9.84262C8.70157 9.50519 9.17031 9.31149 9.75472 9.2615V8.38983H10.4852V9.27087C11.2218 9.35211 11.8336 9.63329 12.3206 10.1144L11.7088 10.9299C11.374 10.5924 10.9662 10.3737 10.4852 10.2738V11.8859C10.7105 11.9484 10.9022 12.0077 11.0605 12.064C11.2188 12.1202 11.3923 12.2014 11.581 12.3077C11.7758 12.4076 11.931 12.5201 12.0467 12.6451C12.1624 12.7638 12.2598 12.92 12.3389 13.1137C12.418 13.3074 12.4576 13.5261 12.4576 13.7698C12.4576 14.2822 12.2902 14.7165 11.9554 15.0726C11.6267 15.4226 11.1366 15.6256 10.4852 15.6819V16.5254H9.75472ZM11.1518 14.3978C11.2979 14.2416 11.371 14.0666 11.371 13.8729C11.371 13.6792 11.2949 13.523 11.1427 13.4043C10.9905 13.2793 10.7713 13.1731 10.4852 13.0856V14.7071C10.7835 14.6571 11.0057 14.554 11.1518 14.3978ZM8.91463 10.9955C8.91463 11.2954 9.19466 11.5266 9.75472 11.6891V10.2269C9.49295 10.2519 9.28598 10.3363 9.13379 10.48C8.98768 10.6174 8.91463 10.7893 8.91463 10.9955Z" fill="#FFEA7C"/>
</g>
<g filter="url(#filter2_f_1_31)" style="mix-blend-mode:overlay">
<circle cx="10.1695" cy="10.1695" r="4.0678" fill="white"/>
</g>
<defs>
<filter id="filter0_i_1_31" x="3.81354" y="6.10168" width="12.4576" height="12.7119" filterUnits="userSpaceOnUse" color-interpolation-filters="sRGB">
<feFlood flood-opacity="0" result="BackgroundImageFix"/>
<feBlend mode="normal" in="SourceGraphic" in2="BackgroundImageFix" result="shape"/>
<feColorMatrix in="SourceAlpha" type="matrix" values="0 0 0 0 0 0 0 0 0 0 0 0 0 0 0 0 0 0 127 0" result="hardAlpha"/>
<feMorphology radius="0.254237" operator="erode" in="SourceAlpha" result="effect1_innerShadow_1_31"/>
<feOffset dy="0.254237"/>
<feComposite in2="hardAlpha" operator="arithmetic" k2="-1" k3="1"/>
<feColorMatrix type="matrix" values="0 0 0 0 0 0 0 0 0 0 0 0 0 0 0 0 0 0 0.25 0"/>
<feBlend mode="normal" in2="shape" result="effect1_innerShadow_1_31"/>
</filter>
<filter id="filter1_d_1_31" x="7.62711" y="8.38983" width="4.83051" height="8.38983" filterUnits="userSpaceOnUse" color-interpolation-filters="sRGB">
<feFlood flood-opacity="0" result="BackgroundImageFix"/>
<feColorMatrix in="SourceAlpha" type="matrix" values="0 0 0 0 0 0 0 0 0 0 0 0 0 0 0 0 0 0 127 0" result="hardAlpha"/>
<feOffset dy="0.254237"/>
<feComposite in2="hardAlpha" operator="out"/>
<feColorMatrix type="matrix" values="0 0 0 0 0 0 0 0 0 0 0 0 0 0 0 0 0 0 0.25 0"/>
<feBlend mode="normal" in2="BackgroundImageFix" result="effect1_dropShadow_1_31"/>
<feBlend mode="normal" in="SourceGraphic" in2="effect1_dropShadow_1_31" result="shape"/>
</filter>
<filter id="filter2_f_1_31" x="-1.00136e-05" y="-1.00136e-05" width="20.339" height="20.339" filterUnits="userSpaceOnUse" color-interpolation-filters="sRGB">
<feFlood flood-opacity="0" result="BackgroundImageFix"/>
<feBlend mode="normal" in="SourceGraphic" in2="BackgroundImageFix" result="shape"/>
<feGaussianBlur stdDeviation="3.05085" result="effect1_foregroundBlur_1_31"/>
</filter>
</defs>
</svg>
