<svg width="25" height="24" viewBox="0 0 25 24" fill="none" xmlns="http://www.w3.org/2000/svg">
<path fill-rule="evenodd" clip-rule="evenodd" d="M24.0057 12.0407C24.0131 12.0351 24.0205 12.0295 24.0277 12.0237C24.0277 12.0201 24.0277 12.0166 24.0277 12.013C24.0277 12.0099 24.0278 12.0067 24.0278 12.0036C24.0252 12.0018 24.0224 12.0001 24.0197 11.9984C24.0139 11.9949 24.0082 11.9914 24.0035 11.9867C23.5693 11.5524 23.1352 11.118 22.7012 10.6836C22.2656 10.2477 21.83 9.81182 21.3943 9.376C21.3773 9.35903 21.3588 9.34363 21.3465 9.33345C21.3424 9.33004 21.339 9.32722 21.3366 9.32512L18.6484 12.0132L21.3355 14.7004C21.3413 14.6948 21.3477 14.6887 21.3545 14.6822C21.3724 14.665 21.3932 14.6451 21.4135 14.6248C21.6561 14.3822 21.8987 14.1396 22.1413 13.8971C22.7475 13.291 23.3536 12.6849 23.96 12.079C23.974 12.065 23.9899 12.0529 24.0057 12.0407ZM4.63504 7.36544L7.3328 10.0629L12.0006 5.39536L16.6734 10.0682C16.806 9.96568 19.3334 7.42664 19.3635 7.37232L11.9906 0C11.8835 0.0816 4.66544 7.31112 4.63504 7.36544ZM11.9962 18.6178L7.32312 13.9449C6.41712 14.8482 5.51832 15.7443 4.63112 16.6291L12.0019 24L19.3716 16.6307L16.6798 13.9424L16.1532 14.4689L15.6353 14.9868L15.1174 15.5047L14.5994 16.0226L14.0744 16.5476L13.5565 17.0655L13.0386 17.5834C12.9868 17.6352 12.935 17.6871 12.8833 17.739C12.7626 17.86 12.6419 17.981 12.5204 18.1011C12.4656 18.1553 12.4115 18.2101 12.3571 18.2651C12.2403 18.3834 12.1226 18.5025 11.9962 18.6178ZM9.28032 12.007L12.0015 14.7281L14.7202 12.0095L11.999 9.2884L9.28032 12.007ZM2.67512 9.32673L0 12.0018L2.67832 14.6801L5.35312 12.0047L2.67512 9.32673Z" fill="#F4B92E"/>
</svg>
