<svg width="22" height="28" viewBox="0 0 22 28" fill="none" xmlns="http://www.w3.org/2000/svg">
<path d="M20.3371 11.8117L15.3244 10.395C14.9152 10.2794 14.6831 9.84909 14.8128 9.44648L17.2031 2.02615C17.5625 1.55777 17.5511 0.88626 17.1431 0.426801C16.6791 -0.0950413 15.8788 -0.145457 15.3553 0.31473L0.426422 13.4444C-0.0969769 13.9048 -0.145195 14.7014 0.318651 15.2236C0.483181 15.4093 0.699036 15.5427 0.939123 15.607C0.982838 15.6187 1.0272 15.6271 1.07174 15.6341C1.11404 15.6504 1.15736 15.665 1.20217 15.677L4.9563 16.6829C5.41219 16.8051 5.6443 17.3103 5.4384 17.7322L1.60144 25.5966C1.1796 26.0383 1.13136 26.7321 1.51748 27.2316C1.68692 27.4515 1.92449 27.6096 2.19321 27.6814C2.56104 27.78 2.96887 27.7131 3.29363 27.4646L20.6983 14.1521C20.8587 14.0294 20.9869 13.8699 21.0721 13.6872C21.1321 13.5902 21.1807 13.4839 21.2132 13.3688C21.4027 12.6991 21.0104 12.002 20.3371 11.8117Z" fill="url(#paint0_linear_1_75)"/>
<defs>
<linearGradient id="paint0_linear_1_75" x1="14.4408" y1="-0.514243" x2="14.4408" y2="20.9358" gradientUnits="userSpaceOnUse">
<stop stop-color="#F7C243"/>
<stop offset="1" stop-color="#FD902B"/>
</linearGradient>
</defs>
</svg>
