<svg width="30" height="13" viewBox="0 0 30 13" fill="none" xmlns="http://www.w3.org/2000/svg">
<path d="M0.396006 12.78C0.288006 12.78 0.192006 12.744 0.108006 12.672C0.0360056 12.588 5.62891e-06 12.492 5.62891e-06 12.384C5.62891e-06 12.348 0.00600563 12.306 0.0180056 12.258C0.0300056 12.198 0.0540056 12.144 0.0900056 12.096L3.09601 7.974L0.360006 4.104C0.324006 4.056 0.294006 4.008 0.270006 3.96C0.258006 3.912 0.252006 3.864 0.252006 3.816C0.252006 3.708 0.294006 3.618 0.378006 3.546C0.462006 3.462 0.558006 3.42 0.666006 3.42H2.86201C3.01801 3.42 3.13201 3.456 3.20401 3.528C3.28801 3.6 3.34801 3.666 3.38401 3.726L5.05801 6.048L6.71401 3.744C6.76201 3.684 6.82201 3.618 6.89401 3.546C6.97801 3.462 7.09801 3.42 7.25401 3.42H9.36001C9.46801 3.42 9.55801 3.462 9.63001 3.546C9.71401 3.618 9.75601 3.708 9.75601 3.816C9.75601 3.864 9.75001 3.912 9.73801 3.96C9.72601 4.008 9.70201 4.056 9.66601 4.104L6.85801 7.974L9.90001 12.096C9.94801 12.144 9.97801 12.192 9.99001 12.24C10.002 12.288 10.008 12.336 10.008 12.384C10.008 12.492 9.96601 12.588 9.88201 12.672C9.81001 12.744 9.71401 12.78 9.59401 12.78H7.30801C7.16401 12.78 7.05601 12.75 6.98401 12.69C6.91201 12.618 6.85201 12.552 6.80401 12.492L4.98601 10.026L3.15001 12.492C3.10201 12.54 3.04201 12.6 2.97001 12.672C2.89801 12.744 2.78401 12.78 2.62801 12.78H0.396006ZM14.92 12.78C14.8 12.78 14.692 12.738 14.596 12.654C14.512 12.57 14.47 12.462 14.47 12.33V3.762L12.004 5.652C11.896 5.736 11.782 5.766 11.662 5.742C11.554 5.718 11.458 5.652 11.374 5.544L10.312 4.158C10.24 4.05 10.21 3.936 10.222 3.816C10.246 3.684 10.318 3.582 10.438 3.51L14.578 0.305998C14.65 0.257998 14.716 0.227998 14.776 0.215999C14.848 0.191998 14.926 0.179998 15.01 0.179998H17.26C17.38 0.179998 17.482 0.221998 17.566 0.305998C17.662 0.389998 17.71 0.497998 17.71 0.629999V12.33C17.71 12.462 17.662 12.57 17.566 12.654C17.482 12.738 17.38 12.78 17.26 12.78H14.92ZM24.6233 12.96C23.7593 12.96 23.0093 12.84 22.3733 12.6C21.7373 12.348 21.2093 12.006 20.7893 11.574C20.3813 11.142 20.0693 10.638 19.8533 10.062C19.6373 9.486 19.5113 8.868 19.4753 8.208C19.4633 7.884 19.4513 7.518 19.4393 7.11C19.4393 6.69 19.4393 6.27 19.4393 5.85C19.4513 5.418 19.4633 5.034 19.4753 4.698C19.5113 4.038 19.6373 3.426 19.8533 2.862C20.0813 2.286 20.4053 1.788 20.8253 1.368C21.2573 0.935999 21.7853 0.599998 22.4093 0.359998C23.0453 0.119998 23.7833 -1.90735e-06 24.6233 -1.90735e-06C25.4753 -1.90735e-06 26.2133 0.119998 26.8373 0.359998C27.4613 0.599998 27.9833 0.935999 28.4033 1.368C28.8353 1.788 29.1653 2.286 29.3933 2.862C29.6213 3.426 29.7473 4.038 29.7713 4.698C29.7953 5.034 29.8073 5.418 29.8073 5.85C29.8193 6.27 29.8193 6.69 29.8073 7.11C29.8073 7.518 29.7953 7.884 29.7713 8.208C29.7473 8.868 29.6213 9.486 29.3933 10.062C29.1773 10.638 28.8593 11.142 28.4393 11.574C28.0313 12.006 27.5093 12.348 26.8733 12.6C26.2493 12.84 25.4993 12.96 24.6233 12.96ZM24.6233 10.35C25.2473 10.35 25.6973 10.152 25.9733 9.756C26.2613 9.348 26.4113 8.802 26.4233 8.118C26.4473 7.77 26.4593 7.404 26.4593 7.02C26.4713 6.636 26.4713 6.252 26.4593 5.868C26.4593 5.484 26.4473 5.13 26.4233 4.806C26.4113 4.146 26.2613 3.612 25.9733 3.204C25.6973 2.796 25.2473 2.586 24.6233 2.574C23.9993 2.586 23.5493 2.796 23.2733 3.204C22.9973 3.612 22.8473 4.146 22.8233 4.806C22.8113 5.13 22.7993 5.484 22.7873 5.868C22.7873 6.252 22.7873 6.636 22.7873 7.02C22.7993 7.404 22.8113 7.77 22.8233 8.118C22.8473 8.802 23.0033 9.348 23.2913 9.756C23.5793 10.152 24.0233 10.35 24.6233 10.35Z" fill="#FE881C"/>
</svg>
